<?xml version="1.0" encoding="UTF-8"?>
<svg xmlns="http://www.w3.org/2000/svg" xmlns:xlink="http://www.w3.org/1999/xlink" viewBox="0 0 32 32" width="32px" height="32px">
<g id="surface11322136">
<path style=" stroke:none;fill-rule:nonzero;fill:rgb(22.352941%,16.862746%,9.803922%);fill-opacity:1;" d="M 16 0 C 7.164062 0 0 7.164062 0 16 C 0 24.019531 5.910156 30.644531 13.609375 31.800781 L 13.609375 20.238281 L 9.648438 20.238281 L 9.648438 16.035156 L 13.609375 16.035156 L 13.609375 13.234375 C 13.609375 8.601562 15.867188 6.570312 19.714844 6.570312 C 21.558594 6.570312 22.535156 6.707031 22.996094 6.769531 L 22.996094 10.4375 L 20.371094 10.4375 C 18.734375 10.4375 18.164062 11.988281 18.164062 13.734375 L 18.164062 16.035156 L 22.957031 16.035156 L 22.308594 20.238281 L 18.164062 20.238281 L 18.164062 31.835938 C 25.976562 30.777344 32 24.101562 32 16 C 32 7.164062 24.835938 0 16 0 Z M 16 0 "/>
</g>
</svg>
