<?xml version="1.0" encoding="UTF-8"?>
<svg xmlns="http://www.w3.org/2000/svg" xmlns:xlink="http://www.w3.org/1999/xlink" viewBox="0 0 32 32" width="32px" height="32px">
<g id="surface29584286">
<path style=" stroke:none;fill-rule:nonzero;fill:rgb(22.352941%,16.862746%,9.803922%);fill-opacity:1;" d="M 7.679688 1.921875 C 4.503906 1.921875 1.921875 4.503906 1.921875 7.679688 L 1.921875 24.320312 C 1.921875 27.496094 4.503906 30.078125 7.679688 30.078125 L 24.320312 30.078125 C 27.496094 30.078125 30.078125 27.496094 30.078125 24.320312 L 30.078125 7.679688 C 30.078125 4.503906 27.496094 1.921875 24.320312 1.921875 Z M 24.320312 5.121094 L 26.238281 5.121094 C 26.59375 5.121094 26.878906 5.40625 26.878906 5.761719 L 26.878906 7.679688 C 26.878906 8.03125 26.59375 8.320312 26.238281 8.320312 L 24.320312 8.320312 C 23.96875 8.320312 23.679688 8.03125 23.679688 7.679688 L 23.679688 5.761719 C 23.679688 5.40625 23.96875 5.121094 24.320312 5.121094 Z M 16 6.398438 C 19.410156 6.398438 22.414062 8.191406 24.113281 10.878906 L 26.878906 10.878906 L 26.878906 23.679688 C 26.878906 25.445312 25.445312 26.878906 23.679688 26.878906 L 8.320312 26.878906 C 6.554688 26.878906 5.121094 25.445312 5.121094 23.679688 L 5.121094 10.878906 L 7.886719 10.878906 C 9.585938 8.191406 12.589844 6.398438 16 6.398438 Z M 16 7.679688 C 11.410156 7.679688 7.679688 11.410156 7.679688 16 C 7.679688 20.589844 11.410156 24.320312 16 24.320312 C 20.589844 24.320312 24.320312 20.589844 24.320312 16 C 24.320312 11.410156 20.589844 7.679688 16 7.679688 Z M 16 10.238281 C 19.175781 10.238281 21.761719 12.824219 21.761719 16 C 21.761719 19.175781 19.175781 21.761719 16 21.761719 C 12.824219 21.761719 10.238281 19.175781 10.238281 16 C 10.238281 12.824219 12.824219 10.238281 16 10.238281 Z M 16 10.238281 "/>
</g>
</svg>
