<?xml version="1.0" encoding="UTF-8"?>
<svg xmlns="http://www.w3.org/2000/svg" xmlns:xlink="http://www.w3.org/1999/xlink" viewBox="0 0 32 32" width="32px" height="32px">
<g id="surface24726211">
<path style=" stroke:none;fill-rule:nonzero;fill:rgb(22.352941%,16.862746%,9.803922%);fill-opacity:1;" d="M 8.960938 2.554688 C 5.433594 2.554688 2.558594 5.425781 2.558594 8.953125 L 2.558594 23.035156 C 2.558594 26.5625 5.433594 29.433594 8.960938 29.433594 L 23.039062 29.433594 C 26.566406 29.433594 29.441406 26.5625 29.441406 23.035156 L 29.441406 8.953125 C 29.441406 5.425781 26.566406 2.554688 23.039062 2.554688 Z M 11.523438 7.703125 C 11.925781 7.71875 12.292969 7.945312 12.515625 8.292969 C 12.769531 8.6875 13.164062 9.300781 13.675781 10.101562 C 14.144531 10.832031 14.175781 11.777344 13.757812 12.539062 L 12.820312 13.871094 C 12.566406 14.230469 12.515625 14.695312 12.6875 15.101562 C 12.953125 15.734375 13.464844 16.707031 14.378906 17.621094 C 15.292969 18.535156 16.265625 19.046875 16.898438 19.3125 C 17.304688 19.484375 17.769531 19.433594 18.128906 19.179688 L 19.460938 18.242188 C 20.222656 17.824219 21.167969 17.855469 21.898438 18.324219 C 22.699219 18.835938 23.3125 19.230469 23.707031 19.484375 C 24.054688 19.707031 24.28125 20.074219 24.296875 20.476562 C 24.398438 22.757812 22.628906 23.679688 22.117188 23.679688 C 21.761719 23.679688 17.484375 24.167969 12.65625 19.34375 C 7.832031 14.515625 8.320312 10.238281 8.320312 9.882812 C 8.320312 9.371094 9.242188 7.601562 11.523438 7.703125 Z M 11.523438 7.703125 "/>
</g>
</svg>
