<?xml version="1.0" encoding="UTF-8"?>
<svg xmlns="http://www.w3.org/2000/svg" xmlns:xlink="http://www.w3.org/1999/xlink" viewBox="0 0 32 32" width="32px" height="32px">
<g id="surface11325625">
<path style=" stroke:none;fill-rule:nonzero;fill:rgb(22.352941%,16.862746%,9.803922%);fill-opacity:1;" d="M 16 0.5 C 7.449219 0.5 0.5 7.449219 0.5 16 C 0.5 18.625 1.148438 21.199219 2.425781 23.476562 L 1.101562 28.324219 C 0.875 29.101562 1.101562 29.898438 1.675781 30.476562 C 2.25 31.050781 3.050781 31.273438 3.824219 31.074219 L 8.875 29.75 C 11.074219 30.898438 13.523438 31.5 16.023438 31.5 C 24.574219 31.5 31.523438 24.550781 31.523438 16 C 31.523438 11.851562 29.925781 7.976562 27 5.050781 C 24.050781 2.125 20.148438 0.5 16 0.5 Z M 16 2 C 19.75 2 23.273438 3.449219 25.898438 6.101562 C 28.550781 8.75 30.023438 12.273438 30 16 C 30 23.726562 23.726562 30 16 30 C 13.675781 30 11.351562 29.398438 9.300781 28.300781 C 9.199219 28.25 9.074219 28.199219 8.949219 28.199219 C 8.875 28.199219 8.824219 28.199219 8.75 28.226562 L 3.425781 29.625 C 3.050781 29.726562 2.800781 29.523438 2.699219 29.425781 C 2.601562 29.324219 2.398438 29.074219 2.5 28.699219 L 3.898438 23.550781 C 3.949219 23.351562 3.925781 23.148438 3.824219 22.976562 C 2.625 20.875 2 18.449219 2 16 C 2 8.273438 8.273438 2 16 2 Z M 16 4.25 C 9.523438 4.25 4.25 9.5 4.25 16 C 4.25 18.074219 4.800781 20.101562 5.824219 21.875 C 6.226562 22.574219 6.324219 23.398438 6.125 24.175781 L 5.398438 26.800781 L 8.199219 26.074219 C 8.449219 26 8.699219 25.976562 8.949219 25.976562 C 9.449219 25.976562 9.949219 26.101562 10.375 26.351562 C 12.101562 27.25 14.023438 27.75 16 27.75 C 22.476562 27.75 27.75 22.476562 27.75 16 C 27.75 12.851562 26.523438 9.898438 24.300781 7.675781 C 22.101562 5.476562 19.148438 4.25 16 4.25 Z M 10.773438 9.175781 L 11.476562 9.175781 C 11.75 9.175781 12.023438 9.199219 12.300781 9.800781 C 12.625 10.523438 13.351562 12.351562 13.425781 12.523438 C 13.523438 12.699219 13.574219 12.925781 13.449219 13.175781 C 13.324219 13.425781 13.273438 13.574219 13.074219 13.800781 C 12.898438 14.023438 12.675781 14.273438 12.523438 14.449219 C 12.351562 14.625 12.148438 14.824219 12.375 15.199219 C 12.601562 15.574219 13.324219 16.773438 14.425781 17.75 C 15.824219 19 17.023438 19.398438 17.398438 19.574219 C 17.773438 19.75 17.976562 19.726562 18.199219 19.476562 C 18.425781 19.226562 19.125 18.398438 19.375 18.023438 C 19.625 17.648438 19.875 17.726562 20.199219 17.851562 C 20.550781 17.976562 22.351562 18.875 22.726562 19.050781 C 23.101562 19.226562 23.351562 19.324219 23.425781 19.476562 C 23.523438 19.675781 23.523438 20.398438 23.226562 21.273438 C 22.925781 22.125 21.425781 22.976562 20.726562 23.023438 C 20.050781 23.074219 19.425781 23.324219 16.300781 22.101562 C 12.550781 20.625 10.175781 16.773438 10 16.523438 C 9.824219 16.273438 8.5 14.523438 8.5 12.699219 C 8.5 10.875 9.449219 10 9.800781 9.625 C 10.148438 9.25 10.523438 9.175781 10.773438 9.175781 Z M 10.773438 9.175781 "/>
</g>
</svg>
